<svg width="23" height="28" viewBox="0 0 23 28" fill="none" xmlns="http://www.w3.org/2000/svg">
<path d="M22 11.4001C22 17.8911 14.7301 24.6512 12.2888 26.739C12.0614 26.9084 11.7845 27 11.5 27C11.2155 27 10.9386 26.9084 10.7112 26.739C8.26994 24.6512 1 17.8911 1 11.4001C1 8.64184 2.10625 5.99653 4.07538 4.04613C6.04451 2.09573 8.71523 1 11.5 1C14.2848 1 16.9555 2.09573 18.9246 4.04613C20.8938 5.99653 22 8.64184 22 11.4001Z" stroke="#2D9D0D" stroke-width="2" stroke-linecap="round" stroke-linejoin="round"/>
<path d="M11.5 15.3002C13.6746 15.3002 15.4375 13.5541 15.4375 11.4001C15.4375 9.24619 13.6746 7.50008 11.5 7.50008C9.32538 7.50008 7.5625 9.24619 7.5625 11.4001C7.5625 13.5541 9.32538 15.3002 11.5 15.3002Z" stroke="#2D9D0D" stroke-width="2" stroke-linecap="round" stroke-linejoin="round"/>
</svg>
